<?xml version="1.0" standalone="no"?><!DOCTYPE svg PUBLIC "-//W3C//DTD SVG 1.1//EN" "http://www.w3.org/Graphics/SVG/1.1/DTD/svg11.dtd"><svg t="1649922234893" class="icon" viewBox="0 0 1024 1024" version="1.1" xmlns="http://www.w3.org/2000/svg" p-id="150213" data-spm-anchor-id="a313x.7781069.0.i29" width="1024" height="1024" xmlns:xlink="http://www.w3.org/1999/xlink"><defs><style type="text/css">@font-face { font-family: feedback-iconfont; src: url("//at.alicdn.com/t/font_1031158_u69w8yhxdu.woff2?t=1630033759944") format("woff2"), url("//at.alicdn.com/t/font_1031158_u69w8yhxdu.woff?t=1630033759944") format("woff"), url("//at.alicdn.com/t/font_1031158_u69w8yhxdu.ttf?t=1630033759944") format("truetype"); }
</style></defs><path d="M521.73485 573.885296a35.6963 35.6963 0 0 1-17.890815-4.806912L83.367216 325.746233a35.724744 35.724744 0 0 1 35.78163-61.835663l402.586004 232.978802 399.741678-231.556638a35.724744 35.724744 0 1 1 35.810073 61.807219l-417.632492 241.909988a35.6963 35.6963 0 0 1-17.919259 4.835355z" fill="#1296db" p-id="150214" data-spm-anchor-id="a313x.7781069.0.i31" class=""></path><path d="M521.763294 1005.312773a35.724744 35.724744 0 0 1-35.724744-35.724743V537.677017a35.724744 35.724744 0 1 1 71.421044 0v431.911013a35.724744 35.724744 0 0 1-35.6963 35.724743z" fill="#595959" p-id="150215" data-spm-anchor-id="a313x.7781069.0.i30" class=""></path><path d="M521.848623 0.04238a243.303708 243.303708 0 0 1 116.361407 27.362424l254.282808 141.419924a259.6017 259.6017 0 0 1 123.102461 208.830468v269.044864a259.6017 259.6017 0 0 1-123.18779 208.858912l-254.225923 141.391481a263.413098 263.413098 0 0 1-232.26772 0l-254.368138-141.476811a259.6017 259.6017 0 0 1-123.130904-208.830468v-269.044865A259.6017 259.6017 0 0 1 151.602614 168.739398L405.828537 27.347917A241.085133 241.085133 0 0 1 521.848623 0.04238z m0.17066 952.536576a174.869207 174.869207 0 0 0 81.546847-18.033031l254.197479-141.391482a190.56989 190.56989 0 0 0 86.410646-146.425939v-269.044865a190.56989 190.56989 0 0 0-86.353759-146.369053l-254.339696-141.476811a173.845249 173.845249 0 0 0-81.632177-18.345907 171.740447 171.740447 0 0 0-81.148641 18.289021L186.274957 231.286143a190.56989 190.56989 0 0 0-86.410646 146.397496v269.044865a190.56989 190.56989 0 0 0 86.353759 146.369053l254.368139 141.476811a174.840764 174.840764 0 0 0 81.433074 18.004588z" fill="#696969" p-id="150216" data-spm-anchor-id="a313x.7781069.0.i32" class=""></path><path d="M759.719667 606.73727a35.724744 35.724744 0 0 1-35.724743-35.724744v-153.593643L289.922223 166.776813a35.724744 35.724744 0 0 1 35.724743-61.864106l451.90663 260.966976a35.724744 35.724744 0 0 1 17.862372 30.917832v174.300341a35.724744 35.724744 0 0 1-35.696301 35.639414z" fill="#1296db" p-id="150217" data-spm-anchor-id="a313x.7781069.0.i33" class=""></path></svg>